# xmcd CD database file
#
# Track frame offsets:
#	224
#	23004
#	37079
#	63060
#	94003
#	125527
#	147426
#	177395
#	197138
#	214837
#	225153
#	254977
#	276992
#	313783
#
# Disc length: 4450 seconds
#
# Revision: 0
# Processed by: cddbd v1.5PL3 Copyright (c) Steve Scherf et al.
# Submitted via: CDex 1.51
#
DISCID=d111600e
DTITLE=The Steelin Jazz Trio - Lightning Strikes the Heartland
DYEAR=1900
DGENRE=Jazz
TTITLE0=Perdido
TTITLE1=Clear De Way
TTITLE2=Mosquito
TTITLE3=Mystery Band
TTITLE4=Softly as in a Morning Sunrise
TTITLE5=Night in Tunisia
TTITLE6=Round Midnight
TTITLE7=Take the A Train
TTITLE8=The Lion Sleeps Tonight
TTITLE9=Doggie
TTITLE10=I Shot the Sheriff
TTITLE11=Scrapple from the Apple
TTITLE12=Blue Monk
TTITLE13=Pan is Mine
EXTD=
EXTT0=
EXTT1=
EXTT2=
EXTT3=
EXTT4=
EXTT5=
EXTT6=
EXTT7=
EXTT8=
EXTT9=
EXTT10=
EXTT11=
EXTT12=
EXTT13=
PLAYORDER=
